<?xml version="1.0" encoding="utf-8"?>
<!-- Generator: Adobe Illustrator 27.0.0, SVG Export Plug-In . SVG Version: 6.00 Build 0)  -->
<svg version="1.1" id="Layer_1" xmlns="http://www.w3.org/2000/svg" xmlns:xlink="http://www.w3.org/1999/xlink" x="0px" y="0px"
	 viewBox="0 0 3000 3000" style="enable-background:new 0 0 3000 3000;" xml:space="preserve">
<style type="text/css">
	.st0{fill:#060B27;}
	.st1{fill:#FFF682;}
	.st2{fill:url(#SVGID_1_);}
	.st3{opacity:0.28;fill:url(#SVGID_00000007430040231078187330000009976259596220845997_);}
	.st4{opacity:0.28;fill:url(#SVGID_00000104697171551622108690000001300347654651206830_);}
	.st5{opacity:0.76;fill:#FFFFFF;}
	.st6{fill:#FFFFFF;}
	.st7{fill:url(#SVGID_00000101085041902658348760000005996459983265597578_);}
	.st8{opacity:0.28;fill:url(#SVGID_00000140004107013372044940000002783404699292692375_);}
	.st9{opacity:0.28;fill:url(#SVGID_00000140705532857974067510000013639247119125185196_);}
	.st10{opacity:0.28;fill:url(#SVGID_00000052804792930863070320000009993442064918360720_);}
	.st11{opacity:0.28;fill:url(#SVGID_00000011026475837343045110000007991027171816468389_);}
	.st12{opacity:0.18;}
</style>
<path d="M2604.5,1977.3l-1,2c-30.2,54.8-70.9,103.6-121.7,143.3l-384.2,303.7l-301.2,237.8c-174,137.3-419.4,137.3-592.9,0
	l-685.9-541.6c-127.2-100.6-194.6-259-179-420.9l48.8-508.9l52.8-554.6c6-64.9,28.7-124.2,63.9-175l0.5-0.5
	c52.3-75.4,132.8-130.7,226.8-150.4c253.4-52.8,510.9-79.5,768.4-79.5c258,0,515.4,26.7,768.4,79.5
	c78.9,16.6,147.8,57.8,199.1,115.2c51.3,57.3,85,130.2,92.5,210.7l101.6,1063.5C2670.9,1798.8,2650.2,1894.3,2604.5,1977.3z"/>
<linearGradient id="SVGID_1_" gradientUnits="userSpaceOnUse" x1="169.3351" y1="795.7767" x2="2046.7994" y2="2488.5725">
	<stop  offset="0" style="stop-color:#FFFFFF"/>
	<stop  offset="1" style="stop-color:#FFFFFF;stop-opacity:0"/>
</linearGradient>
<path style="opacity:0.28;fill:url(#SVGID_1_);" d="M2604.5,1977.3l-1,2c-30.2,54.8-70.9,103.6-121.7,143.3l-685.4,541.6
	c-174,137.3-419.4,137.3-592.9,0l-685.9-541.6c-127.2-100.6-194.6-259-179-420.9L440.2,638.2c6-64.9,28.7-124.2,63.9-175l0.5-0.5
	L2604.5,1977.3z"/>
<linearGradient id="SVGID_00000061429803512779008430000011257088086028012457_" gradientUnits="userSpaceOnUse" x1="-55.9721" y1="1045.663" x2="1821.4922" y2="2738.4587">
	<stop  offset="0" style="stop-color:#FFFFFF"/>
	<stop  offset="1" style="stop-color:#FFFFFF;stop-opacity:0"/>
</linearGradient>
<path style="opacity:0.28;fill:url(#SVGID_00000061429803512779008430000011257088086028012457_);" d="M2097.6,2426.3l-301.2,237.8
	c-174,137.3-419.4,137.3-592.9,0l-685.9-541.6c-127.2-100.6-194.6-259-179-420.9l48.8-508.9L2097.6,2426.3z"/>
<circle class="st5" cx="1470.4" cy="1395.9" r="717.1"/>
<circle class="st6" cx="1470.4" cy="1395.9" r="629.2"/>
<g>
	<path d="M2010.8,1386.9c0,219.3-130.8,408-318.3,492.6l-55.9-138.4l-56.3-139.5v-0.2c77.9-39.9,131.3-121.1,131.3-214.8
		c0-133.2-107.9-241.2-241.2-241.2c-133.2,0-241.4,107.9-241.4,241.2c0,93.7,53.4,175,131.5,214.9l-56.3,139.5h-0.2l-55.7,138.2
		c-187.8-84.6-318.5-273.1-318.5-492.4c0-298.6,242.1-540.5,540.5-540.5C1769.1,846.4,2010.8,1088.4,2010.8,1386.9z"/>
</g>
</svg>
