<?xml version="1.0" encoding="utf-8"?>
<!-- Generator: Adobe Illustrator 27.0.0, SVG Export Plug-In . SVG Version: 6.00 Build 0)  -->
<svg version="1.1" id="Layer_1" xmlns="http://www.w3.org/2000/svg" xmlns:xlink="http://www.w3.org/1999/xlink" x="0px" y="0px"
	 viewBox="0 0 3000 926.4" style="enable-background:new 0 0 3000 926.4;" xml:space="preserve">
<style type="text/css">
	.st0{fill:#00254A;}
	.st1{fill:#FFF682;}
	.st2{fill:url(#SVGID_1_);}
	.st3{opacity:0.28;fill:url(#SVGID_00000098181310375416154380000002007031822754355075_);}
	.st4{opacity:0.28;fill:url(#SVGID_00000055680769294645625000000018350421484417526922_);}
	.st5{opacity:0.76;fill:#FFFFFF;}
	.st6{fill:#FFFFFF;}
	.st7{fill:url(#SVGID_00000176760081430500071090000005236418599938657470_);}
	.st8{fill:url(#SVGID_00000107548273427458345840000000792938796584570516_);}
	.st9{opacity:0.28;fill:url(#SVGID_00000121991424598832338640000015346835772150389674_);}
	.st10{opacity:0.28;fill:url(#SVGID_00000003794710090524717960000016010228089021660306_);}
	.st11{fill:url(#SVGID_00000034056112547590566080000014157949610786974645_);}
	.st12{opacity:0.28;fill:url(#SVGID_00000102532218851393934600000003895631703507595648_);}
	.st13{opacity:0.28;fill:url(#SVGID_00000131329215750700270680000010411460064317077153_);}
	.st14{opacity:0.28;fill:url(#SVGID_00000034805271646731346620000006886938787313312689_);}
	.st15{opacity:0.28;fill:url(#SVGID_00000144332855684030191710000016788614355370898105_);}
	.st16{opacity:0.28;fill:url(#SVGID_00000137093659075123800490000017550919050510469305_);}
	.st17{opacity:0.28;fill:url(#SVGID_00000114777791610471883520000016447789209381917087_);}
	.st18{opacity:0.18;}
	.st19{opacity:0.28;fill:url(#SVGID_00000058590634545287276870000005928172098448837273_);}
	.st20{opacity:0.28;fill:url(#SVGID_00000160174626788961698330000000074575437705024943_);}
	.st21{fill:#002650;}
	.st22{fill:url(#SVGID_00000171713116801523467460000011176801133459924415_);}
	.st23{opacity:0.28;fill:url(#SVGID_00000113336091916521884980000015291840071217460359_);}
	.st24{opacity:0.28;fill:url(#SVGID_00000134217066510043013660000000267942601343580059_);}
	.st25{fill:url(#SVGID_00000032622282478738149690000003905484745678108802_);}
	.st26{fill:url(#SVGID_00000171710293616679829850000006307258632967764148_);}
	.st27{opacity:0.28;fill:url(#SVGID_00000121982764281678044340000004961642795953241276_);}
	.st28{opacity:0.28;fill:url(#SVGID_00000088839594805502825350000010922488287163291826_);}
	.st29{fill:url(#SVGID_00000072977363059276503460000013188129959740637080_);}
</style>
<g>
	<path d="M764.6,600.9l-0.3,0.6c-8.7,15.8-20.5,29.9-35.1,41.4l-110.9,87.6l-86.9,68.6c-50.2,39.6-121,39.6-171.1,0L162.4,642.9
		c-36.7-29-56.2-74.7-51.7-121.4l14.1-146.8l15.2-160c1.7-18.7,8.3-35.8,18.4-50.5l0.1-0.1c15.1-21.8,38.3-37.7,65.4-43.4
		c73.1-15.2,147.4-22.9,221.7-22.9c74.4,0,148.7,7.7,221.7,22.9c22.8,4.8,42.7,16.7,57.5,33.2c14.8,16.5,24.5,37.6,26.7,60.8
		L781,521.4C783.7,549.4,777.8,577,764.6,600.9z"/>
	<linearGradient id="SVGID_1_" gradientUnits="userSpaceOnUse" x1="61.9378" y1="260.0005" x2="603.6754" y2="748.4524">
		<stop  offset="0" style="stop-color:#FFFFFF"/>
		<stop  offset="1" style="stop-color:#FFFFFF;stop-opacity:0"/>
	</linearGradient>
	<path style="opacity:0.28;fill:url(#SVGID_1_);" d="M764.6,600.9l-0.3,0.6c-8.7,15.8-20.5,29.9-35.1,41.4L531.4,799.1
		c-50.2,39.6-121,39.6-171.1,0L162.4,642.9c-36.7-29-56.2-74.7-51.7-121.4l29.3-306.9c1.7-18.7,8.3-35.8,18.4-50.5l0.1-0.1
		L764.6,600.9z"/>
	
		<linearGradient id="SVGID_00000039121139600922851160000006832062523012846227_" gradientUnits="userSpaceOnUse" x1="-3.0741" y1="332.1046" x2="538.6635" y2="820.5565">
		<stop  offset="0" style="stop-color:#FFFFFF"/>
		<stop  offset="1" style="stop-color:#FFFFFF;stop-opacity:0"/>
	</linearGradient>
	<path style="opacity:0.28;fill:url(#SVGID_00000039121139600922851160000006832062523012846227_);" d="M618.3,730.5l-86.9,68.6
		c-50.2,39.6-121,39.6-171.1,0L162.4,642.9c-36.7-29-56.2-74.7-51.7-121.4l14.1-146.8L618.3,730.5z"/>
	<circle class="st5" cx="437.4" cy="433.2" r="206.9"/>
	<circle class="st6" cx="437.4" cy="433.2" r="181.6"/>
	<g>
		<path d="M593.3,430.6c0,63.3-37.7,117.7-91.9,142.1l-16.1-39.9l-16.2-40.3v-0.1c22.5-11.5,37.9-34.9,37.9-62
			c0-38.4-31.1-69.6-69.6-69.6c-38.4,0-69.6,31.1-69.6,69.6c0,27,15.4,50.5,37.9,62l-16.2,40.3h-0.1l-16.1,39.9
			c-54.2-24.4-91.9-78.8-91.9-142.1c0-86.1,69.9-156,156-156C523.5,274.6,593.3,344.4,593.3,430.6z"/>
	</g>
</g>
<g>
	<path d="M1205.8,287.8H1327l-133.5,151.9l143,205h-114.4l-92.6-141l-53.8,61.3v79.7H979V133.9h96.7v316L1205.8,287.8z"/>
	<path d="M1614.4,287.8h89.2v356.8h-89.2V601c-23.6,34.5-61.3,51.7-113,51.7c-50.4,0-90.3-17.7-119.9-53.1
		c-29.5-35.4-44.3-79.9-44.3-133.5s14.8-98.1,44.3-133.5c29.5-35.4,69.5-53.1,119.9-53.1c51.8,0,89.4,17.3,113,51.8V287.8z
		 M1585.4,539.1c16.1-19.1,24.2-43.4,24.2-72.9c0-29.5-8.1-53.8-24.2-72.9c-16.1-19.1-37.4-28.6-63.7-28.6
		c-26.3,0-47.6,9.5-63.7,28.6c-16.1,19.1-24.2,43.4-24.2,72.9c0,29.5,8.1,53.8,24.2,72.9c16.1,19.1,37.3,28.6,63.7,28.6
		C1548.1,567.7,1569.3,558.1,1585.4,539.1z"/>
	<path d="M1881.3,287.8v43.6c18.6-34.5,54-51.8,106.2-51.8c42.2,0,74.7,12.8,97.4,38.5c22.7,25.6,34.1,60.3,34.1,103.8v222.7h-96.7
		V432.8c0-46.8-20.2-70.2-60.6-70.2c-23.2,0-41.1,6.9-53.8,20.8c-12.7,13.9-19.1,32.8-19.1,56.9v204.3h-96.7V287.8H1881.3z"/>
	<path d="M2493.6,366.9l-179.7,194h181.8v83.8H2194v-79.6l178.3-193.5h-175.7v-83.8h297V366.9z"/>
	<path d="M2888.5,494.1h-258.8c3.2,24.5,12.3,43.2,27.2,56.2c15,12.9,34.7,19.4,59.2,19.4c15.4,0,29.4-3.3,41.9-9.9
		c12.5-6.6,21.4-16.2,26.9-29h97.4c-10.5,36.3-31,65.7-61.6,88.2c-30.6,22.5-66.4,33.7-107.2,33.7c-52.7,0-95.8-17.5-129.4-52.4
		c-33.6-35-50.4-79.9-50.4-134.8c0-53.1,16.8-97.4,50.4-132.8c33.6-35.4,76.5-53.1,128.7-53.1c52.2,0,94.8,17.6,127.7,52.8
		c32.9,35.2,49.4,79.6,49.4,133.1L2888.5,494.1z M2712.1,357.2c-21.8,0-39.7,6-53.8,18c-14.1,12-23.2,28.5-27.2,49.4h162.1
		c-3.6-20.4-12.5-36.8-26.6-49C2752.5,363.4,2734.4,357.2,2712.1,357.2z"/>
</g>
</svg>
